<svg width="808" height="354" viewBox="0 0 808 354" fill="none" xmlns="http://www.w3.org/2000/svg">
<path d="M416.524 115.061C407.367 115.061 401.307 108.593 401.307 100.103C401.307 91.6138 407.367 85.1456 416.524 85.1456C425.681 85.1456 431.741 91.6138 431.741 100.103C431.741 108.593 425.547 115.061 416.524 115.061ZM416.524 90.6705C411.272 90.6705 408.309 94.1741 408.309 99.9686C408.309 105.898 411.407 109.267 416.524 109.267C421.641 109.267 424.739 105.763 424.739 99.9686C424.739 94.3089 421.641 90.6705 416.524 90.6705ZM450.46 104.954V114.792H443.727V85.5498H454.096C462.311 85.5498 465.812 89.7272 465.812 95.1174C465.812 100.912 462.176 105.089 454.096 105.089H450.46V104.954ZM450.46 99.8338H453.961C457.463 99.8338 458.944 98.082 458.944 94.9826C458.944 92.2876 457.328 90.5357 453.961 90.5357H450.46V99.8338ZM478.201 85.4151V114.657H497.055V109.401H485.069V102.394H494.227V97.4082H485.069V90.5357H497.055V85.2803H478.201V85.4151ZM517.12 86.4931C516.312 85.5498 516.043 85.4151 514.831 85.4151H511.195V114.657H517.12V99.0253C517.12 98.2168 516.985 97.1387 516.985 96.1954L530.721 113.579C531.395 114.387 532.068 114.657 533.145 114.657H536.647V85.4151H530.721V100.912C530.721 101.855 530.721 102.933 530.856 104.011L517.12 86.4931ZM409.656 139.721H402.923V168.963H409.656V156.565H411.272C412.484 156.565 413.157 156.835 413.696 157.643L420.295 167.885C420.833 168.693 421.372 169.098 422.988 169.098H429.048L420.16 155.487C419.487 154.409 418.679 153.736 417.601 153.331C418.275 152.927 418.948 152.388 419.621 151.579L428.24 139.721H422.315C420.968 139.721 420.16 139.991 419.352 141.069L412.753 150.636C412.349 151.31 411.541 151.579 410.599 151.579H409.521V139.721H409.656ZM447.767 140.799C446.959 139.856 446.689 139.721 445.477 139.721H441.841V168.963H447.767V153.331C447.767 152.523 447.767 151.445 447.632 150.501L461.368 167.885C462.041 168.693 462.715 168.963 463.792 168.963H467.293V139.721H461.368V155.218C461.368 156.161 461.368 157.239 461.503 158.317L447.767 140.799ZM495.573 169.367C486.416 169.367 480.356 162.899 480.356 154.409C480.356 145.92 486.416 139.452 495.573 139.452C504.731 139.452 510.791 145.92 510.791 154.409C510.791 162.764 504.731 169.367 495.573 169.367ZM495.573 144.977C490.321 144.977 487.359 148.48 487.359 154.275C487.359 160.204 490.456 163.573 495.573 163.573C500.691 163.573 503.788 160.069 503.788 154.275C503.788 148.615 500.691 144.977 495.573 144.977ZM527.22 168.963H533.415L538.936 150.771C539.071 150.232 539.34 149.558 539.475 148.75C539.609 149.558 539.879 150.232 540.013 150.771L545.535 168.963H551.729L560.752 139.721H555.365C554.288 139.721 553.345 140.395 553.211 141.203L549.171 156.431C548.901 157.374 548.767 158.452 548.497 159.665C548.228 158.452 547.959 157.374 547.555 156.431L542.841 141.203C542.572 140.26 541.764 139.721 540.552 139.721H538.532C537.455 139.721 536.512 140.395 536.377 141.203L531.664 156.431C531.395 157.374 530.991 158.587 530.721 159.8C530.587 158.587 530.317 157.374 530.048 156.431L526.008 141.203C525.739 140.26 524.931 139.721 523.719 139.721H518.063L527.22 168.963ZM579.875 139.721H573.141V168.963H590.783V163.573H579.875V139.721ZM605.057 139.721V168.963H623.911V163.707H611.925V156.7H621.083V151.714H611.925V144.842H623.911V139.586H605.057V139.721ZM649.497 168.963H638.185V139.721H649.497C658.655 139.721 664.715 145.92 664.715 154.409C664.715 162.764 658.655 168.963 649.497 168.963ZM649.497 144.977H644.919V163.842H649.497C654.615 163.842 657.712 160.204 657.712 154.409C657.712 148.615 654.749 144.977 649.497 144.977ZM695.149 163.168C693.803 163.707 692.456 164.112 690.571 164.112C685.723 164.112 682.087 160.608 682.087 154.409C682.087 148.75 685.319 145.111 690.301 145.111C692.995 145.111 694.476 145.65 696.631 146.998C697.035 147.267 697.439 147.402 697.843 147.402C698.516 147.402 698.92 146.998 699.324 146.459L701.344 143.494C699.055 141.203 695.419 139.586 690.436 139.586C681.009 139.586 674.949 145.785 674.949 154.544C674.949 163.168 681.279 169.502 689.897 169.502C694.745 169.502 698.112 168.559 701.075 166.403V153.87H690.705V157.643C690.705 158.317 691.244 158.856 692.052 158.856H694.88V163.168H695.149ZM714.945 139.721V168.963H733.799V163.707H721.813V156.7H730.971V151.714H721.813V144.842H733.799V139.586H714.945V139.721ZM402.788 194.027V223.269H409.656V211.95H419.621V206.694H409.656V199.283H421.641V194.027H402.788ZM466.081 208.715C466.081 210.871 465.677 212.758 465.004 214.645C464.331 216.531 463.253 218.013 461.907 219.361C460.56 220.709 458.944 221.787 457.059 222.46C455.173 223.269 453.153 223.673 450.864 223.673C448.575 223.673 446.555 223.269 444.669 222.46C442.784 221.652 441.168 220.709 439.821 219.361C438.475 218.013 437.397 216.396 436.724 214.645C436.051 212.758 435.647 210.871 435.647 208.715C435.647 206.559 436.051 204.673 436.724 202.786C437.397 200.9 438.475 199.417 439.821 198.07C441.168 196.722 442.784 195.644 444.669 194.97C446.555 194.162 448.575 193.892 450.864 193.892C453.153 193.892 455.173 194.297 457.059 195.105C458.944 195.914 460.56 196.992 461.907 198.339C463.253 199.687 464.196 201.304 465.004 203.056C465.677 204.538 466.081 206.559 466.081 208.715ZM459.213 208.715C459.213 207.233 459.079 206.02 458.675 204.807C458.271 203.595 457.732 202.651 457.059 201.843C456.385 201.034 455.443 200.361 454.5 199.956C453.557 199.552 452.345 199.283 450.999 199.283C449.652 199.283 448.575 199.552 447.497 199.956C446.42 200.361 445.612 201.034 444.939 201.843C444.265 202.651 443.727 203.595 443.323 204.807C442.919 206.02 442.784 207.233 442.784 208.715C442.784 210.198 442.919 211.545 443.323 212.623C443.727 213.836 444.265 214.779 444.939 215.588C445.612 216.396 446.555 217.07 447.497 217.474C448.575 217.879 449.652 218.148 450.999 218.148C452.345 218.148 453.423 217.879 454.5 217.474C455.577 217.07 456.385 216.396 457.059 215.588C457.732 214.779 458.271 213.836 458.675 212.623C458.944 211.411 459.213 210.063 459.213 208.715ZM493.553 217.879C492.611 217.879 491.803 217.744 491.129 217.474C490.456 217.205 489.783 216.801 489.244 216.127C488.705 215.588 488.436 214.914 488.167 214.106C487.897 213.297 487.763 212.354 487.763 211.411V194.027H481.029V211.411C481.029 213.162 481.299 214.914 481.837 216.396C482.376 217.879 483.319 219.226 484.396 220.304C485.473 221.382 486.82 222.191 488.301 222.865C489.783 223.538 491.668 223.808 493.553 223.808C495.439 223.808 497.189 223.538 498.805 222.865C500.287 222.326 501.633 221.382 502.711 220.304C503.788 219.226 504.596 217.879 505.269 216.396C505.808 214.914 506.212 213.297 506.212 211.411V194.027H499.479V211.411C499.479 212.489 499.344 213.297 499.075 214.106C498.805 214.914 498.401 215.588 497.997 216.127C497.459 216.666 496.92 217.07 496.112 217.474C495.304 217.744 494.496 217.879 493.553 217.879ZM526.951 194.027C526.681 194.027 526.547 194.027 526.143 194.027H522.641V223.269H528.567V207.637C528.567 207.233 528.567 206.694 528.567 206.29C528.567 205.751 528.567 205.347 528.432 204.807L542.168 222.191C542.437 222.595 542.841 222.865 543.245 223.134C543.649 223.269 544.053 223.404 544.592 223.404H548.093V194.162H542.168V209.659C542.168 210.063 542.168 210.602 542.168 211.141C542.168 211.68 542.168 212.219 542.303 212.758L528.432 195.24C528.297 194.97 528.028 194.836 527.893 194.701C527.759 194.566 527.624 194.431 527.489 194.431C527.355 194.162 527.085 194.027 526.951 194.027ZM591.591 208.715C591.591 210.871 591.187 212.758 590.513 214.51C589.84 216.262 588.763 217.879 587.416 219.091C586.069 220.439 584.453 221.382 582.568 222.191C580.683 222.865 578.663 223.269 576.373 223.269H565.061V194.027H576.373C578.663 194.027 580.683 194.431 582.568 195.105C584.453 195.779 586.069 196.857 587.416 198.205C588.763 199.552 589.705 201.034 590.513 202.786C591.187 204.673 591.591 206.559 591.591 208.715ZM584.588 208.715C584.588 207.233 584.453 206.02 584.049 204.807C583.645 203.595 583.107 202.651 582.433 201.843C581.76 201.034 580.817 200.361 579.875 199.956C578.797 199.552 577.72 199.283 576.373 199.283H571.795V218.148H576.373C577.72 218.148 578.797 217.879 579.875 217.474C580.817 217.07 581.76 216.396 582.433 215.588C583.107 214.779 583.645 213.836 584.049 212.623C584.453 211.411 584.588 210.063 584.588 208.715ZM634.145 223.269H628.893C628.355 223.269 627.816 223.134 627.412 222.865C627.008 222.595 626.739 222.191 626.604 221.787L624.853 216.666H613.676L611.925 221.787C611.791 222.191 611.521 222.46 611.117 222.865C610.713 223.134 610.309 223.269 609.636 223.269H604.384L615.696 194.027H622.564L634.145 223.269ZM615.292 212.084H623.237L620.544 203.999C620.409 203.46 620.14 202.921 619.871 202.247C619.601 201.573 619.467 200.765 619.197 199.956C618.928 200.765 618.793 201.573 618.524 202.247C618.255 202.921 618.12 203.595 617.851 203.999L615.292 212.084ZM646.535 194.027V199.417H654.749V223.269H661.483V199.417H669.697V194.027H646.535ZM692.052 194.027H685.184V223.269H692.052V194.027ZM738.378 208.715C738.378 210.871 737.973 212.758 737.3 214.645C736.627 216.531 735.549 218.013 734.203 219.361C732.856 220.709 731.24 221.787 729.355 222.46C727.469 223.269 725.449 223.673 723.16 223.673C720.871 223.673 718.851 223.269 716.965 222.46C715.08 221.652 713.464 220.709 712.117 219.361C710.771 218.013 709.693 216.396 709.02 214.645C708.212 212.758 707.943 210.871 707.943 208.715C707.943 206.559 708.347 204.673 709.02 202.786C709.693 200.9 710.771 199.417 712.117 198.07C713.464 196.722 715.08 195.644 716.965 194.97C718.851 194.162 720.871 193.892 723.16 193.892C725.449 193.892 727.469 194.297 729.355 195.105C731.24 195.914 732.856 196.992 734.203 198.339C735.549 199.687 736.492 201.304 737.3 203.056C737.973 204.538 738.378 206.559 738.378 208.715ZM731.375 208.715C731.375 207.233 731.24 206.02 730.836 204.807C730.432 203.595 729.893 202.651 729.22 201.843C728.547 201.034 727.604 200.361 726.661 199.956C725.719 199.552 724.507 199.283 723.16 199.283C721.813 199.283 720.736 199.552 719.659 199.956C718.581 200.361 717.773 201.034 717.1 201.843C716.427 202.651 715.888 203.595 715.484 204.807C715.08 206.02 714.945 207.233 714.945 208.715C714.945 210.198 715.08 211.545 715.484 212.623C715.888 213.836 716.427 214.779 717.1 215.588C717.773 216.396 718.716 217.07 719.659 217.474C720.736 217.879 721.813 218.148 723.16 218.148C724.507 218.148 725.584 217.879 726.661 217.474C727.739 217.07 728.547 216.396 729.22 215.588C729.893 214.779 730.432 213.836 730.836 212.623C731.24 211.411 731.375 210.063 731.375 208.715ZM758.039 194.027C757.769 194.027 757.635 194.027 757.231 194.027H753.595V223.269H759.52V207.637C759.52 207.233 759.52 206.694 759.52 206.29C759.52 205.751 759.52 205.347 759.385 204.807L773.121 222.191C773.391 222.595 773.795 222.865 774.199 223.134C774.603 223.269 775.007 223.404 775.545 223.404H779.047V194.162H773.121V209.659C773.121 210.063 773.121 210.602 773.121 211.141C773.121 211.68 773.256 212.219 773.256 212.758L759.385 195.24C759.251 194.97 758.981 194.836 758.847 194.701C758.712 194.566 758.577 194.431 758.443 194.431C758.308 194.162 758.173 194.027 758.039 194.027ZM320.372 16.44L311.215 9.70232L255.059 85.0301L264.081 91.7678L320.372 16.44ZM267.179 39.4831L257.079 34.3624L236.879 74.9235L246.979 80.0441L267.179 39.4831ZM247.921 3.09936L237.013 0L217.217 68.3205L228.125 71.5546L247.921 3.09936ZM212.639 21.426L201.327 20.2132L196.748 65.3559L208.06 66.5687L212.639 21.426ZM187.321 65.2212L183.416 14.6882L172.104 15.4968L176.009 66.0297L187.321 65.2212ZM166.717 67.6467L157.964 34.0929L146.921 36.9227L155.675 70.4766L166.717 67.6467ZM146.787 73.7107L136.956 52.689L126.721 57.4054L136.552 78.5619L146.787 73.7107ZM128.472 83.1435L123.22 75.732L113.928 82.335L119.18 89.7465L128.472 83.1435ZM111.908 95.8104L85.3787 69.668L77.4334 77.7533L104.097 103.896L111.908 95.8104ZM98.0373 111.172L56.8293 82.874L50.5 92.3068L91.708 120.605L98.0373 111.172ZM87.1294 128.825L61.1387 117.371L56.56 127.747L82.5507 139.201L87.1294 128.825ZM0 140.549L76.76 159.145L79.4534 148.095L2.69333 129.499L0 140.549ZM75.4133 168.443L18.18 165.074L17.5067 176.394L74.74 179.762L75.4133 168.443ZM76.356 200.515L75.0093 189.195L19.5267 195.933L20.8733 207.252L76.356 200.515ZM81.7427 220.593L78.376 209.813L65.9867 213.721L69.3533 224.501L81.7427 220.593ZM90.496 239.324L85.244 229.217L43.4973 250.913L48.7493 261.019L90.496 239.324ZM102.481 256.303L95.4787 247.274L55.348 278.403L62.3507 287.431L102.481 256.303ZM117.429 270.722L108.945 263.175L75.952 299.963L84.436 307.51L117.429 270.722ZM134.667 282.311L124.971 276.381L112.985 295.786L122.681 301.715L134.667 282.311ZM153.655 290.665L143.151 286.488L126.991 327.858L137.495 332.035L153.655 290.665ZM173.72 295.517L162.543 293.36L154.732 333.383L165.909 335.539L173.72 295.517ZM194.459 296.595L183.147 296.46L182.743 324.893L194.055 325.028L194.459 296.595ZM224.22 348.206L215.197 294.034L204.02 295.921L213.043 350.092L224.22 348.206ZM246.171 319.099L234.993 287.836L224.355 291.743L235.532 323.006L246.171 319.099ZM243.343 283.793L284.551 354L294.381 348.34L253.173 278.133L243.343 283.793ZM275.663 271.53L269.333 265.062L261.119 272.878L267.448 279.346L275.663 271.53ZM311.619 273.013L283.339 249.835L276.201 258.594L304.481 281.772L311.619 273.013ZM323.065 248.218L294.112 232.182L288.591 242.154L317.544 258.19L323.065 248.218ZM315.659 217.494L301.653 212.777L298.017 223.558L312.023 228.274L315.659 217.494ZM349.191 198.898L305.424 192.429L303.808 203.614L347.575 210.082L349.191 198.898ZM334.108 182.188L333.704 170.869L305.693 171.812L306.097 183.131L334.108 182.188ZM339.36 154.833L336.936 143.783L302.192 151.195L304.616 162.244L339.36 154.833ZM321.853 133.003L317.544 122.492L295.189 131.655L299.499 142.166L321.853 133.003ZM349.999 85.2996L343.804 75.732L284.551 113.733L290.611 123.3L349.999 85.2996ZM287.917 97.9665L280.241 89.6117L271.353 97.9665L279.029 106.321L287.917 97.9665ZM181.665 172.351C180.723 171.273 179.645 170.464 178.299 169.925C176.952 169.386 175.471 169.117 173.855 169.117H168.064V193.373H173.855C175.471 193.373 177.087 193.103 178.299 192.564C179.645 192.025 180.723 191.217 181.665 190.139C182.608 189.06 183.281 187.848 183.82 186.365C184.359 184.883 184.493 183.131 184.493 181.245C184.493 179.358 184.224 177.741 183.82 176.124C183.281 174.642 182.608 173.294 181.665 172.351ZM261.792 183.266L261.523 174.911L236.34 175.72L260.984 170.464L259.233 162.379L234.589 167.635L257.887 158.067L254.789 150.386L231.492 159.954L252.769 146.343L248.325 139.336L227.048 152.946L245.363 135.698L239.707 129.634L221.257 146.748L236.34 126.534L229.741 121.549L214.659 141.762L225.971 119.123L218.564 115.35L207.252 137.989L214.389 113.733L206.175 111.442L199.172 135.698L201.865 110.633L193.651 109.825L190.957 135.833L188.937 109.825L180.588 110.499L182.608 135.698L176.144 111.307L168.064 113.463L174.528 137.854L163.889 114.946L156.348 118.449L166.987 141.357L152.308 120.47L145.575 125.322L160.119 145.939L142.073 128.286L136.283 134.215L154.328 151.868L133.455 137.719L128.741 144.592L149.615 158.741L126.587 148.499L123.22 156.046L146.248 166.287L121.739 160.358L119.853 168.443L144.363 174.372L119.18 172.89L118.641 181.245L143.824 182.727L118.776 185.826L119.853 194.046L144.901 190.947L120.796 198.493L123.22 206.444L147.325 198.898L124.971 210.621L128.876 218.033L151.231 206.309L131.3 221.806L136.417 228.409L156.348 212.912L139.515 231.643L145.709 237.168L162.543 218.437L149.345 239.863L156.483 244.175L169.68 222.614L160.523 246.062L168.333 249.026L177.491 225.579L172.643 250.374L180.857 251.991L185.705 227.196L185.436 252.395L193.785 252.53L194.055 227.331L198.229 252.26L206.444 250.913L202.269 225.983L210.753 249.7L218.564 246.87L209.811 223.288L222.469 245.118L229.607 240.941L216.948 219.246L233.243 238.515L239.572 233.125L223.277 213.855L242.804 229.891L248.056 223.423L228.529 207.387L250.615 219.65L254.655 212.373L232.569 200.11L256.405 208.196L259.099 200.38L235.263 192.295L260.176 196.068L261.388 187.848L236.475 184.075L261.792 183.266ZM192.035 188.791C191.092 191.082 189.745 193.103 188.129 194.72C186.379 196.472 184.359 197.685 181.935 198.628C179.511 199.571 176.817 200.11 173.855 200.11H159.176V162.379H173.855C176.817 162.379 179.511 162.918 181.935 163.861C184.359 164.805 186.379 166.152 188.129 167.769C189.88 169.386 191.227 171.408 192.035 173.699C192.977 175.989 193.516 178.55 193.516 181.245C193.516 183.94 192.977 186.5 192.035 188.791ZM221.931 168.982H206.444V177.741H218.295V184.209H206.444V193.238H221.931V199.976H197.691V162.244H222.065V168.982H221.931ZM427.028 263.364C427.028 265.52 426.759 267.407 425.951 269.159C425.277 270.911 424.335 272.393 423.123 273.74C421.911 274.953 420.429 275.897 418.679 276.705C416.928 277.379 415.043 277.783 412.888 277.783H402.115V249.08H412.888C415.043 249.08 416.928 249.485 418.679 250.158C420.429 250.832 421.911 251.775 423.123 253.123C424.335 254.336 425.277 255.953 425.951 257.705C426.624 259.322 427.028 261.208 427.028 263.364ZM422.988 263.364C422.988 261.613 422.719 259.996 422.315 258.648C421.776 257.3 421.103 256.088 420.295 255.144C419.352 254.201 418.409 253.393 417.063 252.988C415.851 252.449 414.369 252.18 412.888 252.18H406.02V274.549H412.888C414.369 274.549 415.851 274.279 417.063 273.74C418.275 273.201 419.352 272.528 420.295 271.584C421.237 270.641 421.911 269.428 422.315 268.081C422.853 266.733 422.988 265.116 422.988 263.364ZM444.131 249.08V277.783H461.772V274.684H448.036V264.847H459.213V261.747H448.036V252.18H461.772V249.08H444.131ZM490.321 274.684C489.109 274.684 488.032 274.414 487.089 274.01C486.147 273.606 485.339 273.067 484.665 272.393C483.992 271.719 483.588 270.776 483.184 269.833C482.915 268.889 482.645 267.677 482.645 266.464V249.08H478.74V266.464C478.74 268.081 479.009 269.698 479.548 271.045C480.087 272.393 480.895 273.741 481.837 274.684C482.78 275.762 483.992 276.57 485.473 277.109C486.82 277.648 488.436 278.053 490.187 278.053C491.937 278.053 493.553 277.783 494.9 277.109C496.381 276.57 497.459 275.762 498.536 274.684C499.479 273.606 500.287 272.393 500.825 271.045C501.364 269.563 501.633 268.081 501.633 266.464V249.08H497.728V266.464C497.728 267.677 497.593 268.755 497.189 269.698C496.92 270.641 496.381 271.584 495.708 272.258C495.035 272.932 494.227 273.606 493.284 273.875C492.476 274.414 491.533 274.684 490.321 274.684ZM517.255 249.08V252.315H526.547V277.648H530.452V252.315H539.744V249.08H517.255ZM571.121 251.641C570.179 250.697 568.967 249.889 567.62 249.485C566.273 248.946 564.792 248.676 563.311 248.676C561.829 248.676 560.617 248.946 559.54 249.35C558.463 249.754 557.52 250.428 556.847 251.102C556.039 251.776 555.5 252.719 555.096 253.662C554.692 254.605 554.557 255.549 554.557 256.627C554.557 257.839 554.692 258.917 555.096 259.861C555.5 260.669 556.039 261.478 556.577 262.017C557.251 262.556 557.924 263.095 558.732 263.364C559.54 263.769 560.348 264.038 561.291 264.308C562.099 264.577 563.041 264.847 563.849 265.116C564.657 265.386 565.331 265.655 566.004 266.06C566.677 266.464 567.216 266.868 567.62 267.407C568.024 267.946 568.159 268.62 568.159 269.563C568.159 270.372 568.024 271.045 567.755 271.719C567.485 272.393 567.081 272.932 566.677 273.336C566.139 273.74 565.6 274.145 564.792 274.414C564.119 274.684 563.311 274.819 562.368 274.819C561.291 274.819 560.348 274.684 559.54 274.414C558.732 274.145 558.059 273.741 557.52 273.471C556.981 273.067 556.577 272.797 556.173 272.528C555.769 272.258 555.5 272.123 555.231 272.123C555.096 272.123 554.827 272.123 554.692 272.258C554.557 272.393 554.423 272.528 554.288 272.662L553.211 274.549C554.288 275.762 555.635 276.57 557.116 277.244C558.597 277.918 560.348 278.187 562.233 278.187C563.715 278.187 565.061 277.918 566.273 277.514C567.485 277.109 568.428 276.436 569.236 275.627C570.044 274.818 570.717 273.875 571.121 272.797C571.525 271.719 571.795 270.506 571.795 269.294C571.795 268.081 571.525 267.137 571.256 266.329C570.852 265.52 570.313 264.847 569.775 264.308C569.101 263.769 568.428 263.23 567.62 262.96C566.812 262.556 566.004 262.286 565.061 262.017C564.253 261.747 563.311 261.478 562.503 261.208C561.695 260.939 561.021 260.669 560.348 260.265C559.675 259.861 559.136 259.456 558.732 258.917C558.328 258.378 558.193 257.705 558.193 256.896C558.193 256.222 558.328 255.683 558.463 255.144C558.732 254.605 559.001 254.201 559.405 253.797C559.809 253.393 560.348 253.123 561.021 252.854C561.695 252.584 562.503 252.449 563.311 252.449C564.253 252.449 565.061 252.584 565.6 252.854C566.273 253.123 566.812 253.258 567.216 253.662C567.62 253.932 568.024 254.201 568.293 254.471C568.563 254.74 568.832 254.74 569.101 254.74C569.371 254.74 569.505 254.74 569.64 254.605C569.775 254.471 569.909 254.336 570.044 254.201L571.121 251.641ZM608.693 271.854C608.424 271.854 608.289 271.989 608.02 272.123C607.481 272.528 607.077 272.932 606.539 273.336C606 273.606 605.461 273.875 604.923 274.145C604.384 274.414 603.711 274.549 603.037 274.549C602.364 274.684 601.556 274.684 600.748 274.684C599.401 274.684 598.055 274.414 596.843 273.875C595.631 273.336 594.553 272.662 593.745 271.719C592.803 270.776 592.129 269.563 591.591 268.216C591.052 266.868 590.783 265.251 590.783 263.499C590.783 261.747 591.052 260.13 591.591 258.783C592.129 257.435 592.803 256.222 593.745 255.279C594.688 254.336 595.765 253.527 596.977 252.988C598.189 252.449 599.671 252.18 601.152 252.18C601.96 252.18 602.768 252.18 603.441 252.315C604.115 252.449 604.653 252.584 605.192 252.719C605.731 252.854 606.135 253.123 606.539 253.258C606.943 253.527 607.212 253.662 607.481 253.797C607.751 253.932 608.02 254.066 608.155 254.201C608.289 254.336 608.559 254.336 608.693 254.336C608.963 254.336 609.097 254.336 609.232 254.201C609.367 254.066 609.501 254.066 609.501 253.932L610.713 252.18C609.501 251.102 608.155 250.158 606.673 249.485C605.192 248.811 603.307 248.541 601.287 248.541C599.132 248.541 597.247 248.946 595.496 249.619C593.745 250.293 592.264 251.371 590.917 252.584C589.705 253.932 588.628 255.414 587.955 257.166C587.281 258.917 586.877 260.939 586.877 263.095C586.877 265.251 587.147 267.272 587.82 269.024C588.493 270.776 589.436 272.393 590.513 273.606C591.725 274.953 593.072 275.897 594.823 276.57C596.439 277.244 598.324 277.648 600.479 277.648C602.768 277.648 604.788 277.244 606.539 276.57C608.155 275.762 609.636 274.684 610.848 273.336L609.367 271.719C609.097 271.854 608.963 271.854 608.693 271.854ZM650.979 249.08H647.073V261.882H631.721V249.08H627.681V277.783H631.587V264.712H646.939V277.783H650.844V249.08H650.979ZM673.603 249.08H669.697V277.783H685.992V274.549H673.603V249.08ZM725.719 277.648H722.756C722.352 277.648 722.083 277.514 721.948 277.379C721.679 277.244 721.544 276.975 721.409 276.705L718.716 269.833H705.923L703.229 276.705C703.095 276.975 702.96 277.109 702.691 277.379C702.421 277.514 702.152 277.648 701.883 277.648H698.92L710.367 248.946H714.272L725.719 277.648ZM707 267.138H717.639L713.195 255.414C712.925 254.74 712.656 253.797 712.387 252.719C712.252 253.258 712.117 253.797 711.983 254.201C711.848 254.605 711.713 255.01 711.579 255.414L707 267.138ZM743.899 249.215C743.764 249.08 743.495 249.08 743.091 249.08H741.071V277.783H744.437V257.435C744.437 257.166 744.437 256.896 744.437 256.492C744.437 256.222 744.437 255.818 744.437 255.549L761.001 277.109C761.271 277.379 761.405 277.514 761.675 277.648C761.944 277.783 762.079 277.783 762.483 277.783H764.503V249.08H761.001V269.428C761.001 269.698 761.001 270.102 761.001 270.372C761.001 270.641 761.001 271.045 761.136 271.315L744.572 249.754C744.303 249.485 744.033 249.215 743.899 249.215ZM808 263.364C808 265.52 807.596 267.407 806.923 269.159C806.249 270.911 805.307 272.393 804.095 273.74C802.883 274.953 801.401 275.897 799.651 276.705C797.9 277.379 796.015 277.783 793.86 277.783H783.087V249.08H793.86C796.015 249.08 797.9 249.485 799.651 250.158C801.401 250.832 802.883 251.775 804.095 253.123C805.307 254.336 806.249 255.953 806.923 257.705C807.596 259.322 808 261.208 808 263.364ZM803.96 263.364C803.96 261.613 803.691 259.996 803.287 258.648C802.748 257.3 802.075 256.088 801.267 255.144C800.324 254.201 799.381 253.393 798.035 252.988C796.823 252.449 795.341 252.18 793.86 252.18H786.992V274.549H793.86C795.341 274.549 796.823 274.279 798.035 273.74C799.247 273.201 800.324 272.528 801.267 271.584C802.209 270.641 802.748 269.428 803.287 268.081C803.825 266.733 803.96 265.116 803.96 263.364Z" fill="black"/>
</svg>
