<?xml version="1.0" encoding="UTF-8" standalone="no"?>
<!-- Generator: Adobe Illustrator 19.2.1, SVG Export Plug-In . SVG Version: 6.00 Build 0)  -->

<svg
   version="1.1"
   x="0px"
   y="0px"
   viewBox="0 0 300.3 375"
   style="enable-background:new 0 0 300.3 375;"
   xml:space="preserve"
   id="svg1"
   sodipodi:docname="PrototypeFund-Icon-2024.svg"
   inkscape:version="1.3.2 (091e20e, 2023-11-25)"
   inkscape:export-filename="PrototypeFund-Icon-2024-Schwarz-2.png"
   inkscape:export-xdpi="300"
   inkscape:export-ydpi="300"
   xmlns:inkscape="http://www.inkscape.org/namespaces/inkscape"
   xmlns:sodipodi="http://sodipodi.sourceforge.net/DTD/sodipodi-0.dtd"
   xmlns="http://www.w3.org/2000/svg"
   xmlns:svg="http://www.w3.org/2000/svg"><defs
   id="defs1" /><sodipodi:namedview
   id="namedview1"
   pagecolor="#ffffff"
   bordercolor="#000000"
   borderopacity="0.25"
   inkscape:showpageshadow="2"
   inkscape:pageopacity="0.0"
   inkscape:pagecheckerboard="0"
   inkscape:deskcolor="#d1d1d1"
   inkscape:zoom="1.7267886"
   inkscape:cx="117.26971"
   inkscape:cy="209.92726"
   inkscape:window-width="1496"
   inkscape:window-height="900"
   inkscape:window-x="186"
   inkscape:window-y="1126"
   inkscape:window-maximized="0"
   inkscape:current-layer="svg1"
   inkscape:export-bgcolor="#ffffffff" />
<style
   type="text/css"
   id="style1">
	.st0{fill:#1D1D1B;}
	.st1{fill:#009ACE;}
</style>
<g
   id="Ebene_2"
   style="fill:#001775;fill-opacity:1"
   transform="matrix(0.89247209,0,0,0.89247209,6.4724159,35.438331)">
	<path
   id="XMLID_127_"
   class="st1"
   d="m 197.4,23.7 38.3,4.8 45.3,87 -45.3,73.1 c 0,0 -51.7,13.5 -71.5,18.3 h -45.1 v 117.8 l 36.5,12.9 -0.9,12.6 -64.9,-0.9 -65.1,0.9 L 23.3,337.6 60,324.7 V 48.9 L 23.4,36.3 24.8,23.7 Z m -78.2,158.1 37.7,7.2 58.2,-40.6 18,-32.9 -18,-33.1 -58.2,-38.4 -37.7,5 z"
   style="fill:#001775;fill-opacity:1"
   inkscape:label="Blau" /><path
   id="XMLID_127_-9"
   class="st1"
   d="m 215.07663,-9.4349026 38.3,4.8 45.3,86.9999996 -45.3,73.100003 c 0,0 -51.7,13.5 -71.5,18.3 h -45.1 v 117.8 l 36.5,12.9 -0.9,12.6 -64.9,-0.9 -65.100004,0.9 -1.4,-12.6 36.700004,-12.9 V 15.765097 L 41.076626,3.1650975 l 1.4,-12.6000001 z m -78.2,158.1000026 37.7,7.2 58.2,-40.6 18,-32.900003 -18,-33.1 -58.2,-38.4 -37.7,5 z"
   style="mix-blend-mode:normal;fill:#ab0da0;fill-opacity:1"
   inkscape:label="Lila" />
</g><path
   id="path5"
   style="mix-blend-mode:normal;fill:#000000;fill-opacity:1;stroke-width:0.892472"
   d="M 75.795883,56.589223 V 295.65147 l -15.775141,5.54483 v 16.99532 l 42.371508,-0.58394 10.37325,0.14293 v -97.65945 h 15.77688 v -19.4043 l -15.68798,-2.9964 V 79.169464 l 15.77688,-2.091732 V 56.589223 Z m 103.840527,0 34.58329,22.817304 16.0645,29.540483 -15.97734,29.20405 0.20046,0.3678 -16.0645,29.36268 -32.45147,22.63776 h 2.80117 c 17.67091,-4.28385 63.81176,-16.33294 63.81176,-16.33294 l 23.4884,-37.90391 -39.26528,-75.408664 -34.18064,-4.284563 z" />
<g
   id="Ebene_1"
   transform="matrix(0.89247209,0,0,0.89247209,6.4724159,35.438331)">
</g>
</svg>
